<svg width="171.5625" height="187.5" viewBox="0 0 73.2 80" xmlns="http://www.w3.org/2000/svg">
   <path
      d="M 55,28 H 34.1 c 0.1,0.5 0.3,1 0.4,1.4 0.7,2.4 1.1,4.9 1.3,7.5 0.1,1 0.1,2.1 0.1,3.1 0,1 0,2.1 -0.1,3.1 -0.2,2.6 -0.6,5.1 -1.3,7.5 -0.1,0.5 -0.3,1 -0.4,1.4 H 55 C 61.6,52 66.9,46.6 66.9,40 66.9,33.4 61.6,28 55,28 Z"
      fill="#00a9e5" id="path1" />
   <path
      d="m 35.8,43.1 c 0.1,-1 0.1,-2.1 0.1,-3.1 0,-1 0,-2.1 -0.1,-3.1 -0.2,-2.6 -0.6,-5.1 -1.3,-7.5 -0.1,-0.5 -0.3,-1 -0.4,-1.4 H 1.8 C 0.6,31.8 0,35.8 0,40 c 0,4.2 0.6,8.2 1.8,12 h 32.3 c 0.1,-0.5 0.3,-1 0.4,-1.4 0.7,-2.4 1.1,-4.9 1.3,-7.5 z"
      fill="#353535" id="path2" />
   <path
      d="m 58.6,56 h -26 c -0.8,1.8 -1.7,3.5 -2.7,5.1 -1.5,2.5 -3.3,4.7 -5.3,6.8 -0.7,0.7 -1.4,1.3 -2.1,2 -1.4,1.3 -3,2.4 -4.6,3.5 6.3,4.2 13.9,6.6 22,6.6 C 53.8,80 66,72.9 73.2,62.2 69.5,58.4 64.3,56 58.6,56 Z"
      fill="#00bfb3" id="path3" />
   <path
      d="m 29.9,61.1 c 1,-1.6 1.9,-3.3 2.7,-5.1 H 3.3 c 3.1,7.1 8.2,13.2 14.7,17.4 1.6,-1.1 3.1,-2.2 4.6,-3.5 0.7,-0.6 1.4,-1.3 2.1,-2 1.9,-2 3.7,-4.3 5.2,-6.8 z"
      fill="#019b8f" id="path4" />
   <path
      d="M 24.6,12.1 C 23.9,11.4 23.2,10.8 22.5,10.1 21.1,8.8 19.5,7.7 17.9,6.6 11.5,10.8 6.4,16.9 3.2,24 h 29.3 c -0.8,-1.8 -1.7,-3.5 -2.7,-5.1 -1.4,-2.5 -3.2,-4.8 -5.2,-6.8 z"
      fill="#f9b110" id="path5" />
   <path
      d="m 39.9,0 c -8.1,0 -15.7,2.4 -22,6.6 1.6,1.1 3.1,2.2 4.6,3.5 0.7,0.6 1.4,1.3 2.1,2 2,2.1 3.8,4.3 5.3,6.8 1,1.6 1.9,3.3 2.7,5.1 h 26 C 64.3,24 69.5,21.6 73.2,17.8 66,7.1 53.8,0 39.9,0 Z"
      fill="#fed10a" id="path6" />
</svg>