<?xml version="1.0" encoding="UTF-8" standalone="no"?>
<svg
   id="Layer_1"
   viewBox="0 0 42.4 55"
   width="1325"
   height="1718.75"
   version="1.1"
   sodipodi:docname="elastic-kibana.svg"
   inkscape:version="1.4 (86a8ad7, 2024-10-11)"
   xmlns:inkscape="http://www.inkscape.org/namespaces/inkscape"
   xmlns:sodipodi="http://sodipodi.sourceforge.net/DTD/sodipodi-0.dtd"
   xmlns="http://www.w3.org/2000/svg"
   xmlns:svg="http://www.w3.org/2000/svg">
  <defs
     id="defs5" />
  <sodipodi:namedview
     id="namedview5"
     pagecolor="#ffffff"
     bordercolor="#000000"
     borderopacity="0.25"
     inkscape:showpageshadow="2"
     inkscape:pageopacity="0.0"
     inkscape:pagecheckerboard="0"
     inkscape:deskcolor="#d1d1d1"
     inkscape:zoom="0.3228"
     inkscape:cx="661.40025"
     inkscape:cy="859.66543"
     inkscape:window-width="1920"
     inkscape:window-height="1009"
     inkscape:window-x="-8"
     inkscape:window-y="-8"
     inkscape:window-maximized="1"
     inkscape:current-layer="Layer_1" />
  <style
     id="style1">
        .st0 {
            fill: #e9478b
        }

        .st1 {
            fill: #3ebeb0
        }

        .st2 {
            fill: #37a595
        }

        .st3 {
            fill: #353535
        }

        .st4 {
            fill: none
        }
    </style>
  <path
     class="st0"
     d="m 0.8,20.6 c 7.3,0 14.2,1.9 20.2,5.1 L 42.4,0 H 0 V 51 20.6 Z"
     id="path1" />
  <path
     class="st1"
     d="M 21,25.7 0,51 v 4 H 42.3 C 39.9,42.4 31.9,31.7 21,25.7 Z"
     id="path2" />
  <path
     class="st2"
     d="M 21,25.7 0,51 v 4 H 7.5 L 27.9,30.4 c 0,0 -1.4,-1.1 -3.3,-2.5 -1.4,-1 -3.6,-2.2 -3.6,-2.2 z"
     id="path3" />
  <path
     class="st3"
     d="M 0.8,20.6 H 0 V 51 L 21,25.7 C 15,22.5 8.1,20.6 0.8,20.6 Z"
     id="path4" />
  <path
     class="st4"
     d="m -18.8,-12.5 h 80 v 80 h -80 z"
     id="path5" />
</svg>
