<?xml version="1.0" encoding="UTF-8" standalone="no"?>
<svg
   id="Layer_1"
   viewBox="0 0 45.2 59"
   width="1412.5"
   height="1843.75"
   version="1.1"
   sodipodi:docname="elastic-beats.svg"
   inkscape:version="1.4 (86a8ad7, 2024-10-11)"
   xmlns:inkscape="http://www.inkscape.org/namespaces/inkscape"
   xmlns:sodipodi="http://sodipodi.sourceforge.net/DTD/sodipodi-0.dtd"
   xmlns="http://www.w3.org/2000/svg"
   xmlns:svg="http://www.w3.org/2000/svg">
  <defs
     id="defs5" />
  <sodipodi:namedview
     id="namedview5"
     pagecolor="#ffffff"
     bordercolor="#000000"
     borderopacity="0.25"
     inkscape:showpageshadow="2"
     inkscape:pageopacity="0.0"
     inkscape:pagecheckerboard="0"
     inkscape:deskcolor="#d1d1d1"
     inkscape:zoom="0.3228"
     inkscape:cx="704.77076"
     inkscape:cy="921.6233"
     inkscape:window-width="1920"
     inkscape:window-height="1009"
     inkscape:window-x="-8"
     inkscape:window-y="-8"
     inkscape:window-maximized="1"
     inkscape:current-layer="Layer_1" />
  <style
     id="style1">
        .st0 {
            fill: #07a5de
        }

        .st1 {
            fill: #3ebeb0
        }

        .st2 {
            opacity: .26;
            enable-background: new
        }

        .st2,
        .st3 {
            fill: #353535
        }

        .st4 {
            fill: none
        }
    </style>
  <path
     class="st0"
     d="M 21.4,34.6 H 0 V 0 h 21.4 c 9.6,0 17.3,7.7 17.3,17.3 0,9.6 -7.7,17.3 -17.3,17.3 z"
     id="path1" />
  <path
     class="st1"
     d="M 27.9,59 H 0 V 24.4 h 27.9 c 9.6,0 17.3,7.7 17.3,17.3 0,9.6 -7.7,17.3 -17.3,17.3 z"
     id="path2" />
  <path
     class="st2"
     d="m 41,30.4 c -3.2,-3.7 -7.9,-6 -13.1,-6 H 0 v 16 h 25.9 c 9.2,0 15.6,-9.5 15.1,-10 z"
     id="path3" />
  <path
     class="st3"
     d="m 21.4,34.6 c 6.2,0 11.6,-3.3 14.7,-8.2 -0.4,-0.2 -0.8,-0.4 -1.3,-0.6 -0.1,0 -0.2,-0.1 -0.3,-0.1 -0.4,-0.2 -0.8,-0.3 -1.3,-0.5 h -0.1 c -0.1,0 -0.1,0 -0.2,-0.1 l -1.2,-0.3 h -0.2 c -0.1,0 -0.2,0 -0.2,-0.1 -0.4,-0.1 -0.8,-0.1 -1.2,-0.2 h -0.6 c -0.5,0 -0.9,-0.1 -1.4,-0.1 H 0 v 10.2 z"
     id="path4" />
  <path
     class="st4"
     d="m -17.4,-10.5 h 80 v 80 h -80 z"
     id="path5" />
</svg>
