<?xml version="1.0" encoding="UTF-8" standalone="no"?>
<svg
   viewBox="0 0 687.50255 235.53916"
   width="2500.0093"
   height="856.77869"
   version="1.1"
   id="svg8"
   sodipodi:docname="elastic.svg"
   inkscape:version="1.4 (86a8ad7, 2024-10-11)"
   xmlns:inkscape="http://www.inkscape.org/namespaces/inkscape"
   xmlns:sodipodi="http://sodipodi.sourceforge.net/DTD/sodipodi-0.dtd"
   xmlns="http://www.w3.org/2000/svg"
   xmlns:svg="http://www.w3.org/2000/svg">
  <defs
     id="defs8" />
  <sodipodi:namedview
     id="namedview8"
     pagecolor="#ffffff"
     bordercolor="#000000"
     borderopacity="0.25"
     inkscape:showpageshadow="2"
     inkscape:pageopacity="0.0"
     inkscape:pagecheckerboard="0"
     inkscape:deskcolor="#d1d1d1"
     inkscape:zoom="0.177"
     inkscape:cx="53.672316"
     inkscape:cy="912.42938"
     inkscape:window-width="1920"
     inkscape:window-height="1009"
     inkscape:window-x="-8"
     inkscape:window-y="-8"
     inkscape:window-maximized="1"
     inkscape:current-layer="svg8" />
  <title
     id="title1">elastic</title>
  <path
     d="m 236.60254,123.46255 a 46.54,46.54 0 0 0 -30.8,-43.900002 67,67 0 0 0 -65.6,-79.60000034 66.72,66.72 0 0 0 -54.199998,27.70000034 35.5,35.5 0 0 0 -57.2,28.1 36.77,36.77 0 0 0 2.2,12.4 46.75,46.75 0 0 0 -0.1,88.000002 66.66,66.66 0 0 0 119.599998,51.6 35,35 0 0 0 21.7,7.6 35.51,35.51 0 0 0 35.5,-35.5 36.77,36.77 0 0 0 -2.2,-12.4 47.08,47.08 0 0 0 31.1,-44"
     fill="#ffffff"
     id="path1" />
  <path
     d="m 93.002542,101.46255 51.799998,23.6 52.2,-45.800002 a 54.71,54.71 0 0 0 1.1,-11.5 58.35,58.35 0 0 0 -106.499998,-33 l -8.7,45.1 z"
     fill="#fed10a"
     id="path2" />
  <path
     d="m 39.402542,156.26255 a 56.62,56.62 0 0 0 -1.1,11.7 58.58,58.58 0 0 0 106.999998,32.9 l 8.6,-44.9 -11.5,-22 -51.999998,-23.7 z"
     fill="#24bbb1"
     id="path3" />
  <path
     d="m 39.102542,66.662548 35.5,8.4 7.8,-40.3 a 28,28 0 0 0 -43.3,31.9"
     fill="#ef5098"
     id="path4" />
  <path
     d="m 36.002542,75.162548 a 39.1,39.1 0 0 0 -1.7,73.700002 l 49.8,-45 -9.1,-19.500002 z"
     fill="#17a8e0"
     id="path5" />
  <path
     d="m 154.30254,200.86255 a 28,28 0 0 0 43.2,-31.9 l -35.4,-8.3 z"
     fill="#93c83e"
     id="path6" />
  <path
     d="m 161.50254,151.36255 39,9.1 a 39.1,39.1 0 0 0 1.7,-73.700002 l -51,44.700002 z"
     fill="#0779a1"
     id="path7" />
  <path
     d="m 330.80254,165.46255 4.7,-0.5 0.3,9.6 a 240.62,240.62 0 0 1 -31.8,2.6 q -17.55,0 -24.9,-10.2 c -4.9,-6.8 -7.3,-17.4 -7.3,-31.7 q 0,-42.900002 34.1,-42.900002 c 11,0 19.2,3.1 24.6,9.200002 5.4,6.1 8.1,15.8 8.1,28.9 l -0.7,9.3 h -53.8 c 0,9 1.6,15.7 4.9,20 3.3,4.3 8.9,6.5 17,6.5 a 230,230 0 0 0 24.8,-0.8 z m -4.4,-35.3 c 0,-10 -1.6,-17.1 -4.8,-21.2 -3.2,-4.1 -8.4,-6.2 -15.6,-6.2 -7.2,0 -12.7,2.2 -16.3,6.5 -3.6,4.3 -5.5,11.3 -5.6,20.9 z m 29.2,45.5 V 58.662548 h 12.2 V 175.66255 Z m 89.3,-56.9 v 40.1 c 0,4.1 10.1,4.9 10.1,4.9 l -0.6,10.8 c -8.6,0 -15.7,0.7 -20,-3.4 a 71.68,71.68 0 0 1 -29.3,6.1 c -7.5,0 -13.2,-2.1 -17.1,-6.4 -3.9,-4.3 -5.9,-10.3 -5.9,-18.3 0,-8 2,-13.8 6,-17.5 4,-3.7 10.3,-6.1 18.9,-6.9 l 25.6,-2.4 v -7 c 0,-5.5 -1.2,-9.5 -3.6,-11.9 -2.4,-2.4 -5.7,-3.6 -9.8,-3.6 h -32.1 V 92.462548 h 31.3 c 9.2,0 15.9,2.1 20.1,6.4 4.2,4.300002 6.4,10.900002 6.4,19.900002 z m -50.2,33.2 c 0,10 4.1,15 12.4,15 a 65.27,65.27 0 0 0 21.8,-3.7 l 3.7,-1.3 v -26.9 l -24.1,2.3 c -4.9,0.4 -8.4,1.8 -10.6,4.2 -2.2,2.4 -3.2,5.9 -3.2,10.4 z m 97.9,-48.6 c -11.8,0 -17.8,4.1 -17.8,12.4 0,3.8 1.4,6.5 4.1,8.1 2.7,1.6 8.9,3.2 18.6,4.9 9.7,1.7 16.5,4 20.5,7.1 4,3.1 6,8.7 6,17.1 0,8.4 -2.7,14.5 -8.1,18.4 -5.4,3.9 -13.2,5.9 -23.6,5.9 -6.7,0 -29.2,-2.5 -29.2,-2.5 l 0.7,-10.6 c 12.9,1.2 22.3,2.2 28.6,2.2 6.3,0 11.1,-1 14.4,-3 3.3,-2 5,-5.4 5,-10.1 0,-4.7 -1.4,-7.9 -4.2,-9.6 -2.8,-1.7 -9,-3.3 -18.6,-4.8 -9.6,-1.5 -16.4,-3.7 -20.4,-6.7 -4,-3 -6,-8.4 -6,-16.3 0,-7.9 2.8,-13.8 8.4,-17.600002 5.6,-3.8 12.6,-5.7 20.9,-5.7 6.6,0 29.6,1.7 29.6,1.7 v 10.700002 c -12.1,-0.7 -22,-1.6 -28.9,-1.6 z m 90.4,1.4 h -25.9 v 39 c 0,9.3 0.7,15.5 2,18.4 1.3,2.9 4.6,4.4 9.7,4.4 l 14.5,-1 0.8,10.1 a 111.1,111.1 0 0 1 -16.6,1.8 c -8.5,0 -14.3,-2.1 -17.6,-6.2 -3.3,-4.1 -4.9,-12 -4.9,-23.6 v -42.9 h -11.6 V 94.162548 h 11.6 v -25 h 12.1 v 24.9 h 25.9 z m 17,-29.100002 v -14.1 h 12.2 v 14.2 z m 0,100.000002 V 94.162548 h 12.2 v 81.500002 z m 65.2,-83.200002 c 3.6,0 9.7,0.7 18.3,2 l 3.9,0.5 -0.5,9.900002 a 187.31,187.31 0 0 0 -19.2,-1.5 c -9.2,0 -15.5,2.2 -18.8,6.6 -3.3,4.4 -5,12.6 -5,24.5 0,11.9 1.5,20.2 4.6,24.9 3.1,4.7 9.5,7 19.3,7 l 19.2,-1.5 0.5,10.1 c -10.1,1.5 -17.7,2.3 -22.7,2.3 -12.7,0 -21.5,-3.3 -26.3,-9.8 -4.8,-6.5 -7.3,-17.5 -7.3,-33 0,-15.5 2.6,-26.4 7.8,-32.6 5.2,-6.200002 14,-9.400002 26.2,-9.400002 z"
     id="path8" />
</svg>
